<svg xmlns="http://www.w3.org/2000/svg" version="1.1" xmlns:xlink="http://www.w3.org/1999/xlink" xmlns:svgjs="http://svgjs.dev/svgjs" viewBox="0 0 800 800"><circle r="6" cx="342" cy="404" fill="hsl(222, 50%, 50%)" opacity="0.51"></circle><circle r="8" cx="502" cy="770" fill="hsl(204, 50%, 50%)" opacity="0.53"></circle><circle r="5.5" cx="376" cy="20" stroke-width="2" stroke="hsl(217, 50%, 50%)" fill="none" opacity="0.91"></circle><circle r="8.5" cx="19" cy="522" fill="hsl(153, 50%, 50%)" opacity="0.92"></circle><circle r="7" cx="292" cy="476" stroke-width="2" stroke="hsl(219, 50%, 50%)" fill="none" opacity="0.13"></circle><circle r="12" cx="79" cy="117" fill="hsl(195, 50%, 50%)" opacity="0.33"></circle><circle r="7.5" cx="739" cy="360" fill="hsl(175, 50%, 50%)" opacity="0.69"></circle><circle r="6.5" cx="250" cy="555" stroke-width="2" stroke="hsl(215, 50%, 50%)" fill="none" opacity="0.42"></circle><circle r="4.5" cx="689" cy="460" fill="hsl(205, 50%, 50%)" opacity="0.14"></circle><circle r="10.5" cx="781" cy="415" fill="hsl(148, 50%, 50%)" opacity="0.13"></circle><circle r="7.5" cx="517" cy="733" fill="hsl(205, 50%, 50%)" opacity="0.46"></circle><circle r="8" cx="350" cy="187" stroke-width="2" stroke="hsl(223, 50%, 50%)" fill="none" opacity="0.66"></circle><circle r="7.5" cx="721" cy="743" stroke-width="2" stroke="hsl(192, 50%, 50%)" fill="none" opacity="0.21"></circle><circle r="6.5" cx="245" cy="678" fill="hsl(213, 50%, 50%)" opacity="0.48"></circle><circle r="7.5" cx="531" cy="439" fill="hsl(206, 50%, 50%)" opacity="0.72"></circle><circle r="7.5" cx="744" cy="707" stroke-width="2" stroke="hsl(175, 50%, 50%)" fill="none" opacity="0.14"></circle><circle r="6" cx="789" cy="239" stroke-width="2" stroke="hsl(139, 50%, 50%)" fill="none" opacity="0.64"></circle><circle r="8.5" cx="767" cy="34" fill="hsl(144, 50%, 50%)" opacity="0.15"></circle><circle r="8.5" cx="473" cy="384" fill="hsl(204, 50%, 50%)" opacity="0.24"></circle><circle r="6.5" cx="572" cy="94" fill="hsl(212, 50%, 50%)" opacity="0.30"></circle><circle r="7.5" cx="288" cy="535" fill="hsl(219, 50%, 50%)" opacity="0.84"></circle><circle r="5" cx="595" cy="277" fill="hsl(217, 50%, 50%)" opacity="1.00"></circle><circle r="8.5" cx="395" cy="612" fill="hsl(217, 50%, 50%)" opacity="0.88"></circle><circle r="8.5" cx="120" cy="349" stroke-width="2" stroke="hsl(191, 50%, 50%)" fill="none" opacity="0.11"></circle><circle r="9.5" cx="159" cy="178" stroke-width="2" stroke="hsl(202, 50%, 50%)" fill="none" opacity="0.82"></circle><circle r="4.5" cx="372" cy="699" fill="hsl(220, 50%, 50%)" opacity="0.36"></circle><circle r="6.5" cx="747" cy="772" stroke-width="2" stroke="hsl(175, 50%, 50%)" fill="none" opacity="0.98"></circle><circle r="5.5" cx="333" cy="317" stroke-width="2" stroke="hsl(222, 50%, 50%)" fill="none" opacity="0.40"></circle><circle r="6" cx="732" cy="256" fill="hsl(184, 50%, 50%)" opacity="0.34"></circle><circle r="7" cx="290" cy="704" stroke-width="2" stroke="hsl(219, 50%, 50%)" fill="none" opacity="0.48"></circle><circle r="7.5" cx="428" cy="772" fill="hsl(210, 50%, 50%)" opacity="0.72"></circle><circle r="5.5" cx="663" cy="321" fill="hsl(215, 50%, 50%)" opacity="0.70"></circle><circle r="12" cx="777" cy="666" stroke-width="2" stroke="hsl(148, 50%, 50%)" fill="none" opacity="0.19"></circle><circle r="5" cx="317" cy="377" stroke-width="2" stroke="hsl(221, 50%, 50%)" fill="none" opacity="0.92"></circle><circle r="6" cx="722" cy="174" stroke-width="2" stroke="hsl(190, 50%, 50%)" fill="none" opacity="0.73"></circle><circle r="5" cx="373" cy="666" stroke-width="2" stroke="hsl(220, 50%, 50%)" fill="none" opacity="0.86"></circle><circle r="5.5" cx="149" cy="633" fill="hsl(197, 50%, 50%)" opacity="0.66"></circle><circle r="9" cx="746" cy="397" fill="hsl(175, 50%, 50%)" opacity="0.73"></circle><circle r="14" cx="773" cy="576" fill="hsl(157, 50%, 50%)" opacity="0.18"></circle><circle r="5" cx="340" cy="359" fill="hsl(222, 50%, 50%)" opacity="0.85"></circle><circle r="7" cx="184" cy="481" stroke-width="2" stroke="hsl(204, 50%, 50%)" fill="none" opacity="0.56"></circle><circle r="6.5" cx="734" cy="291" stroke-width="2" stroke="hsl(184, 50%, 50%)" fill="none" opacity="0.98"></circle><circle r="6" cx="347" cy="19" fill="hsl(210, 50%, 50%)" opacity="0.13"></circle><circle r="6.5" cx="231" cy="129" fill="hsl(212, 50%, 50%)" opacity="0.94"></circle><circle r="7.5" cx="786" cy="113" fill="hsl(150, 50%, 50%)" opacity="0.24"></circle><circle r="7" cx="586" cy="153" fill="hsl(214, 50%, 50%)" opacity="0.41"></circle><circle r="9" cx="716" cy="89" fill="hsl(182, 50%, 50%)" opacity="0.60"></circle><circle r="6" cx="687" cy="172" stroke-width="2" stroke="hsl(209, 50%, 50%)" fill="none" opacity="0.39"></circle><circle r="9.5" cx="380" cy="426" fill="hsl(219, 50%, 50%)" opacity="0.58"></circle><circle r="7" cx="153" cy="321" fill="hsl(199, 50%, 50%)" opacity="0.86"></circle><circle r="5.5" cx="782" cy="737" stroke-width="2" stroke="hsl(148, 50%, 50%)" fill="none" opacity="0.96"></circle><circle r="7" cx="256" cy="486" stroke-width="2" stroke="hsl(215, 50%, 50%)" fill="none" opacity="0.31"></circle><circle r="8.5" cx="436" cy="639" stroke-width="2" stroke="hsl(210, 50%, 50%)" fill="none" opacity="0.77"></circle><circle r="7.5" cx="544" cy="223" fill="hsl(208, 50%, 50%)" opacity="0.64"></circle><circle r="8" cx="744" cy="321" fill="hsl(175, 50%, 50%)" opacity="0.10"></circle><circle r="9.5" cx="36" cy="693" fill="hsl(159, 50%, 50%)" opacity="0.60"></circle><circle r="5" cx="398" cy="717" fill="hsl(217, 50%, 50%)" opacity="0.13"></circle><circle r="10" cx="433" cy="416" fill="hsl(210, 50%, 50%)" opacity="0.12"></circle><circle r="8.5" cx="123" cy="291" stroke-width="2" stroke="hsl(191, 50%, 50%)" fill="none" opacity="0.42"></circle><circle r="5" cx="644" cy="279" stroke-width="2" stroke="hsl(219, 50%, 50%)" fill="none" opacity="0.94"></circle><circle r="5.5" cx="299" cy="440" stroke-width="2" stroke="hsl(219, 50%, 50%)" fill="none" opacity="0.15"></circle><circle r="9" cx="125" cy="81" stroke-width="2" stroke="hsl(213, 50%, 50%)" fill="none" opacity="0.76"></circle><circle r="7" cx="706" cy="567" stroke-width="2" stroke="hsl(199, 50%, 50%)" fill="none" opacity="0.93"></circle><circle r="7" cx="318" cy="38" stroke-width="2" stroke="hsl(209, 50%, 50%)" fill="none" opacity="0.60"></circle><circle r="10" cx="133" cy="235" fill="hsl(194, 50%, 50%)" opacity="0.32"></circle><circle r="7" cx="281" cy="122" stroke-width="2" stroke="hsl(214, 50%, 50%)" fill="none" opacity="0.69"></circle><circle r="7.5" cx="311" cy="283" fill="hsl(220, 50%, 50%)" opacity="0.53"></circle><circle r="6" cx="670" cy="644" stroke-width="2" stroke="hsl(215, 50%, 50%)" fill="none" opacity="0.78"></circle><circle r="9" cx="193" cy="218" fill="hsl(206, 50%, 50%)" opacity="0.92"></circle><circle r="5.5" cx="12" cy="278" fill="hsl(148, 50%, 50%)" opacity="0.18"></circle><circle r="6.5" cx="294" cy="405" fill="hsl(219, 50%, 50%)" opacity="0.61"></circle><circle r="6.5" cx="230" cy="49" fill="hsl(208, 50%, 50%)" opacity="0.84"></circle><circle r="5.5" cx="673" cy="260" fill="hsl(215, 50%, 50%)" opacity="0.13"></circle><circle r="6.5" cx="465" cy="780" stroke-width="2" stroke="hsl(204, 50%, 50%)" fill="none" opacity="0.75"></circle><circle r="7.5" cx="287" cy="77" fill="hsl(209, 50%, 50%)" opacity="0.61"></circle><circle r="13.5" cx="424" cy="306" fill="hsl(212, 50%, 50%)" opacity="0.25"></circle><circle r="8" cx="458" cy="457" stroke-width="2" stroke="hsl(206, 50%, 50%)" fill="none" opacity="0.52"></circle><circle r="6.5" cx="740" cy="199" fill="hsl(175, 50%, 50%)" opacity="0.45"></circle><circle r="6.5" cx="617" cy="463" fill="hsl(220, 50%, 50%)" opacity="0.23"></circle><circle r="5" cx="268" cy="591" fill="hsl(216, 50%, 50%)" opacity="0.76"></circle><circle r="6.5" cx="494" cy="446" fill="hsl(203, 50%, 50%)" opacity="0.49"></circle><circle r="12.5" cx="19" cy="453" fill="hsl(153, 50%, 50%)" opacity="0.34"></circle><circle r="5" cx="448" cy="130" stroke-width="2" stroke="hsl(215, 50%, 50%)" fill="none" opacity="0.55"></circle><circle r="6.5" cx="683" cy="354" stroke-width="2" stroke="hsl(210, 50%, 50%)" fill="none" opacity="0.48"></circle><circle r="6" cx="143" cy="390" fill="hsl(197, 50%, 50%)" opacity="0.57"></circle><circle r="9" cx="98" cy="563" stroke-width="2" stroke="hsl(183, 50%, 50%)" fill="none" opacity="0.22"></circle><circle r="7" cx="261" cy="766" stroke-width="2" stroke="hsl(215, 50%, 50%)" fill="none" opacity="0.59"></circle><circle r="6.5" cx="573" cy="19" fill="hsl(207, 50%, 50%)" opacity="0.44"></circle><circle r="5" cx="360" cy="735" stroke-width="2" stroke="hsl(221, 50%, 50%)" fill="none" opacity="0.50"></circle><circle r="7" cx="462" cy="61" stroke-width="2" stroke="hsl(221, 50%, 50%)" fill="none" opacity="0.24"></circle><circle r="6" cx="685" cy="688" stroke-width="2" stroke="hsl(210, 50%, 50%)" fill="none" opacity="0.31"></circle><circle r="6.5" cx="702" cy="244" stroke-width="2" stroke="hsl(199, 50%, 50%)" fill="none" opacity="0.75"></circle><circle r="6.5" cx="16" cy="247" stroke-width="2" stroke="hsl(153, 50%, 50%)" fill="none" opacity="0.73"></circle><circle r="6" cx="156" cy="277" fill="hsl(199, 50%, 50%)" opacity="0.81"></circle><circle r="7" cx="652" cy="159" stroke-width="2" stroke="hsl(214, 50%, 50%)" fill="none" opacity="0.32"></circle><circle r="8" cx="532" cy="534" fill="hsl(206, 50%, 50%)" opacity="0.78"></circle><circle r="5" cx="610" cy="297" stroke-width="2" stroke="hsl(219, 50%, 50%)" fill="none" opacity="0.57"></circle><circle r="4.5" cx="292" cy="628" fill="hsl(219, 50%, 50%)" opacity="0.65"></circle><circle r="6.5" cx="233" cy="174" stroke-width="2" stroke="hsl(213, 50%, 50%)" fill="none" opacity="0.80"></circle><circle r="11.5" cx="753" cy="512" fill="hsl(166, 50%, 50%)" opacity="0.77"></circle><circle r="6.5" cx="190" cy="346" fill="hsl(206, 50%, 50%)" opacity="0.49"></circle><circle r="7.5" cx="346" cy="252" stroke-width="2" stroke="hsl(222, 50%, 50%)" fill="none" opacity="0.50"></circle><circle r="6" cx="566" cy="516" stroke-width="2" stroke="hsl(213, 50%, 50%)" fill="none" opacity="0.39"></circle><circle r="6.5" cx="438" cy="729" fill="hsl(207, 50%, 50%)" opacity="0.54"></circle><circle r="7" cx="213" cy="20" fill="hsl(210, 50%, 50%)" opacity="0.91"></circle><circle r="10" cx="185" cy="718" fill="hsl(204, 50%, 50%)" opacity="0.47"></circle><circle r="7.5" cx="505" cy="359" stroke-width="2" stroke="hsl(204, 50%, 50%)" fill="none" opacity="0.53"></circle><circle r="6.5" cx="468" cy="19" fill="hsl(220, 50%, 50%)" opacity="0.26"></circle><circle r="4.5" cx="645" cy="222" fill="hsl(219, 50%, 50%)" opacity="0.87"></circle><circle r="11.5" cx="26" cy="71" stroke-width="2" stroke="hsl(176, 50%, 50%)" fill="none" opacity="0.31"></circle><circle r="8.5" cx="155" cy="776" fill="hsl(199, 50%, 50%)" opacity="0.86"></circle><circle r="7" cx="96" cy="490" stroke-width="2" stroke="hsl(183, 50%, 50%)" fill="none" opacity="0.46"></circle><circle r="6" cx="610" cy="352" fill="hsl(219, 50%, 50%)" opacity="0.78"></circle><circle r="5.5" cx="89" cy="788" fill="hsl(183, 50%, 50%)" opacity="0.53"></circle><circle r="8.5" cx="171" cy="670" stroke-width="2" stroke="hsl(202, 50%, 50%)" fill="none" opacity="0.52"></circle><circle r="10.5" cx="780" cy="356" fill="hsl(148, 50%, 50%)" opacity="0.24"></circle><circle r="9" cx="97" cy="619" stroke-width="2" stroke="hsl(183, 50%, 50%)" fill="none" opacity="0.73"></circle><circle r="5" cx="630" cy="432" stroke-width="2" stroke="hsl(220, 50%, 50%)" fill="none" opacity="0.45"></circle><circle r="7" cx="212" cy="371" fill="hsl(208, 50%, 50%)" opacity="0.68"></circle><circle r="5.5" cx="117" cy="746" stroke-width="2" stroke="hsl(191, 50%, 50%)" fill="none" opacity="0.91"></circle><circle r="7.5" cx="527" cy="641" stroke-width="2" stroke="hsl(206, 50%, 50%)" fill="none" opacity="0.42"></circle><circle r="8.5" cx="311" cy="149" fill="hsl(219, 50%, 50%)" opacity="0.35"></circle><circle r="6.5" cx="386" cy="240" fill="hsl(219, 50%, 50%)" opacity="0.89"></circle><circle r="5" cx="627" cy="256" stroke-width="2" stroke="hsl(220, 50%, 50%)" fill="none" opacity="0.49"></circle><circle r="10" cx="343" cy="478" fill="hsl(222, 50%, 50%)" opacity="0.26"></circle><circle r="6" cx="571" cy="187" fill="hsl(213, 50%, 50%)" opacity="0.12"></circle><circle r="6.5" cx="287" cy="239" fill="hsl(218, 50%, 50%)" opacity="0.87"></circle><circle r="9" cx="157" cy="124" stroke-width="2" stroke="hsl(211, 50%, 50%)" fill="none" opacity="0.24"></circle><circle r="7.5" cx="170" cy="516" stroke-width="2" stroke="hsl(202, 50%, 50%)" fill="none" opacity="0.60"></circle><circle r="11" cx="50" cy="777" stroke-width="2" stroke="hsl(169, 50%, 50%)" fill="none" opacity="0.55"></circle><circle r="6" cx="161" cy="606" fill="hsl(199, 50%, 50%)" opacity="0.51"></circle><circle r="10.5" cx="404" cy="485" stroke-width="2" stroke="hsl(215, 50%, 50%)" fill="none" opacity="0.20"></circle><circle r="8" cx="518" cy="25" fill="hsl(214, 50%, 50%)" opacity="0.80"></circle><circle r="5.5" cx="209" cy="414" stroke-width="2" stroke="hsl(208, 50%, 50%)" fill="none" opacity="0.40"></circle><circle r="5.5" cx="202" cy="783" stroke-width="2" stroke="hsl(208, 50%, 50%)" fill="none" opacity="0.86"></circle><circle r="6.5" cx="606" cy="90" stroke-width="2" stroke="hsl(211, 50%, 50%)" fill="none" opacity="0.90"></circle><circle r="6.5" cx="257" cy="641" stroke-width="2" stroke="hsl(215, 50%, 50%)" fill="none" opacity="0.97"></circle><circle r="5" cx="297" cy="16" stroke-width="2" stroke="hsl(203, 50%, 50%)" fill="none" opacity="0.41"></circle><circle r="9" cx="474" cy="509" fill="hsl(204, 50%, 50%)" opacity="0.30"></circle><circle r="7.5" cx="99" cy="44" fill="hsl(210, 50%, 50%)" opacity="0.51"></circle><circle r="11" cx="93" cy="387" fill="hsl(183, 50%, 50%)" opacity="0.45"></circle><circle r="4" cx="568" cy="692" stroke-width="2" stroke="hsl(213, 50%, 50%)" fill="none" opacity="0.41"></circle><circle r="5.5" cx="686" cy="432" fill="hsl(210, 50%, 50%)" opacity="0.49"></circle><circle r="6.5" cx="663" cy="107" stroke-width="2" stroke="hsl(203, 50%, 50%)" fill="none" opacity="0.63"></circle><circle r="6" cx="181" cy="436" stroke-width="2" stroke="hsl(204, 50%, 50%)" fill="none" opacity="0.22"></circle><circle r="5.5" cx="599" cy="599" fill="hsl(217, 50%, 50%)" opacity="0.96"></circle><circle r="7.5" cx="305" cy="201" stroke-width="2" stroke="hsl(220, 50%, 50%)" fill="none" opacity="0.78"></circle><circle r="5" cx="317" cy="660" fill="hsl(221, 50%, 50%)" opacity="0.78"></circle><circle r="6" cx="773" cy="770" fill="hsl(157, 50%, 50%)" opacity="0.87"></circle><circle r="8" cx="424" cy="577" stroke-width="2" stroke="hsl(212, 50%, 50%)" fill="none" opacity="0.63"></circle><circle r="6.5" cx="699" cy="210" stroke-width="2" stroke="hsl(205, 50%, 50%)" fill="none" opacity="0.20"></circle><circle r="7" cx="349" cy="129" fill="hsl(222, 50%, 50%)" opacity="0.45"></circle><circle r="7" cx="217" cy="278" stroke-width="2" stroke="hsl(210, 50%, 50%)" fill="none" opacity="0.14"></circle><circle r="6" cx="117" cy="689" fill="hsl(191, 50%, 50%)" opacity="0.99"></circle><circle r="8" cx="699" cy="605" fill="hsl(205, 50%, 50%)" opacity="0.30"></circle><circle r="6" cx="689" cy="127" stroke-width="2" stroke="hsl(199, 50%, 50%)" fill="none" opacity="0.90"></circle><circle r="7" cx="502" cy="683" fill="hsl(204, 50%, 50%)" opacity="0.77"></circle><circle r="7" cx="53" cy="274" stroke-width="2" stroke="hsl(169, 50%, 50%)" fill="none" opacity="0.81"></circle><circle r="8.5" cx="85" cy="707" fill="hsl(179, 50%, 50%)" opacity="0.55"></circle><circle r="8" cx="35" cy="494" stroke-width="2" stroke="hsl(159, 50%, 50%)" fill="none" opacity="0.17"></circle><circle r="7" cx="69" cy="474" stroke-width="2" stroke="hsl(174, 50%, 50%)" fill="none" opacity="0.12"></circle><circle r="8" cx="623" cy="131" stroke-width="2" stroke="hsl(214, 50%, 50%)" fill="none" opacity="0.60"></circle><circle r="6.5" cx="114" cy="775" stroke-width="2" stroke="hsl(191, 50%, 50%)" fill="none" opacity="0.49"></circle><circle r="6.5" cx="639" cy="634" stroke-width="2" stroke="hsl(219, 50%, 50%)" fill="none" opacity="0.96"></circle><circle r="8" cx="514" cy="486" stroke-width="2" stroke="hsl(205, 50%, 50%)" fill="none" opacity="0.32"></circle><circle r="7.5" cx="634" cy="510" stroke-width="2" stroke="hsl(220, 50%, 50%)" fill="none" opacity="0.75"></circle><circle r="11" cx="72" cy="186" stroke-width="2" stroke="hsl(177, 50%, 50%)" fill="none" opacity="0.71"></circle><circle r="6" cx="544" cy="672" fill="hsl(208, 50%, 50%)" opacity="0.70"></circle><circle r="9" cx="561" cy="391" fill="hsl(211, 50%, 50%)" opacity="0.33"></circle><circle r="10.5" cx="780" cy="301" stroke-width="2" stroke="hsl(148, 50%, 50%)" fill="none" opacity="0.52"></circle><circle r="8" cx="785" cy="706" stroke-width="2" stroke="hsl(148, 50%, 50%)" fill="none" opacity="0.92"></circle><circle r="7" cx="187" cy="301" stroke-width="2" stroke="hsl(204, 50%, 50%)" fill="none" opacity="0.43"></circle><circle r="7" cx="464" cy="602" stroke-width="2" stroke="hsl(204, 50%, 50%)" fill="none" opacity="0.65"></circle><circle r="5.5" cx="174" cy="571" fill="hsl(202, 50%, 50%)" opacity="0.36"></circle></svg>